<svg width="65" height="55" viewBox="0 0 65 55" fill="none" xmlns="http://www.w3.org/2000/svg">
<path d="M63.9488 27.0119C63.2376 22.6834 61.5356 18.7025 59.2526 14.9763C56.1818 9.96007 52.2068 6.051 47.1554 3.44375C45.8195 2.75145 44.4052 2.15194 42.9154 1.64705C39.0779 0.344332 35.1311 0.0695965 31.1215 0.00409667C26.1766 -0.0777781 21.5003 1.06756 17.2931 3.44284C17.1228 3.53927 16.9516 3.63752 16.7813 3.7385C12.5067 6.27843 8.98518 9.37876 6.28872 13.0577C3.33545 17.0886 1.36661 21.8146 0.470523 27.2638C-0.236148 31.565 -0.175134 35.8316 0.846625 40.0736C1.70811 43.6461 3.25532 46.9356 5.14038 50.0669C5.50373 50.6682 5.88894 51.2595 6.28963 51.8408C6.7313 52.4858 7.19209 53.1163 7.6629 53.7376C8.21749 54.4727 8.82035 54.5654 9.31574 54.1897C9.80295 53.8177 9.79293 53.2818 9.28114 52.4749C9.252 52.4322 9.21921 52.3903 9.19281 52.3475C8.32586 50.9557 7.4152 49.5884 6.59925 48.1674C6.49453 47.9845 6.39162 47.8017 6.29054 47.617C2.85189 41.3545 1.74818 34.6508 2.88923 27.5759C3.46295 24.018 4.55391 20.6484 6.29054 17.5462C6.82692 16.5856 7.42704 15.6495 8.09273 14.7416C12.3 9.00486 17.518 5.16948 23.6577 3.44284C25.8733 2.82059 28.2083 2.47126 30.6579 2.40758C32.512 2.51037 33.8188 2.5595 35.1238 2.65593C36.8358 2.78329 38.4841 3.0462 40.0668 3.44193C45.5627 4.81378 50.2753 7.78038 54.152 12.2116C58.6816 17.3897 61.3435 23.5167 61.8552 30.446C62.2969 36.4475 61.1604 42.1387 58.1106 47.3787C57.0278 49.239 55.844 51.0394 54.7148 52.8734C54.458 53.2918 54.2157 53.7048 54.7439 54.157C55.2703 54.6091 55.7511 54.5309 56.1727 54.1033C56.6171 53.6494 57.0397 53.1526 57.373 52.6123C58.9102 50.1096 60.5257 47.6416 61.8971 45.048C63.3952 42.2124 63.9643 39.0857 64.2175 35.8944C64.4561 32.9196 64.4315 29.9466 63.9507 27.01L63.9488 27.0119Z" fill="white"/>
</svg>
