<svg width="21" height="21" viewBox="0 0 21 21" fill="none" xmlns="http://www.w3.org/2000/svg">
<path d="M10.9346 5.428C13.7197 5.428 16.0185 7.72684 16.0185 10.512C16.0185 13.3413 13.7197 15.5959 10.9346 15.5959C8.10523 15.5959 5.8506 13.3413 5.8506 10.512C5.8506 7.72684 8.10523 5.428 10.9346 5.428ZM10.9346 13.8276C12.7471 13.8276 14.206 12.3687 14.206 10.512C14.206 8.69943 12.7471 7.24055 10.9346 7.24055C9.07782 7.24055 7.61894 8.69943 7.61894 10.512C7.61894 12.3687 9.12202 13.8276 10.9346 13.8276ZM17.389 5.25117C17.389 5.9143 16.8585 6.4448 16.1954 6.4448C15.5323 6.4448 15.0017 5.9143 15.0017 5.25117C15.0017 4.58804 15.5323 4.05754 16.1954 4.05754C16.8585 4.05754 17.389 4.58804 17.389 5.25117ZM20.7488 6.4448C20.8373 8.08051 20.8373 12.9876 20.7488 14.6234C20.6604 16.2149 20.3068 17.5853 19.1573 18.779C18.0079 19.9284 16.5933 20.282 15.0017 20.3705C13.366 20.4589 8.4589 20.4589 6.82318 20.3705C5.23168 20.282 3.86122 19.9284 2.66759 18.779C1.51817 17.5853 1.1645 16.2149 1.07608 14.6234C0.987667 12.9876 0.987667 8.08051 1.07608 6.4448C1.1645 4.85329 1.51817 3.43862 2.66759 2.2892C3.86122 1.13978 5.23168 0.786115 6.82318 0.697698C8.4589 0.609281 13.366 0.609281 15.0017 0.697698C16.5933 0.786115 18.0079 1.13978 19.1573 2.2892C20.3068 3.43862 20.6604 4.85329 20.7488 6.4448ZM18.6268 16.3475C19.1573 15.0654 19.0247 11.9709 19.0247 10.512C19.0247 9.09731 19.1573 6.00271 18.6268 4.67646C18.2732 3.8365 17.61 3.12916 16.7701 2.8197C15.4438 2.2892 12.3492 2.42183 10.9346 2.42183C9.47569 2.42183 6.3811 2.2892 5.09905 2.8197C4.21488 3.17337 3.55176 3.8365 3.19809 4.67646C2.66759 6.00271 2.80021 9.09731 2.80021 10.512C2.80021 11.9709 2.66759 15.0654 3.19809 16.3475C3.55176 17.2317 4.21488 17.8948 5.09905 18.2485C6.3811 18.779 9.47569 18.6463 10.9346 18.6463C12.3492 18.6463 15.4438 18.779 16.7701 18.2485C17.61 17.8948 18.3174 17.2317 18.6268 16.3475Z" fill="white"/>
</svg>
