<svg width="47" height="36" viewBox="0 0 47 36" fill="none" xmlns="http://www.w3.org/2000/svg">
<path d="M46.0287 35.9394L37.2918 34.4629C37.4056 34.0499 37.5741 33.484 37.5413 33.4822C37.6342 32.991 37.7116 32.5816 37.7872 32.1722C38.1214 30.3664 39.145 28.9036 40.1194 27.4089C40.3316 27.086 40.47 26.643 40.4573 26.2609C40.4172 25.111 40.2596 23.9666 40.195 22.8158C40.0793 20.7416 39.8171 18.7138 39.033 16.757C38.432 15.2514 38.0559 13.6585 37.4821 12.1384C37.2235 11.4543 36.8583 10.7174 36.3247 10.2453C34.1983 8.36395 33.0736 5.90225 32.122 3.33684C31.9016 2.73825 31.6512 2.44441 31.0165 2.3498C29.1669 2.07506 27.341 1.71572 25.904 0.347505C25.7401 0.190124 25.3622 0.161013 25.1072 0.206498C24.3659 0.347505 23.6429 0.588581 22.9007 0.735956C20.8644 1.13896 19.085 2.1533 17.2209 2.99297C16.078 3.50696 15.3003 4.16651 14.9097 5.3355C14.5754 6.33255 13.8925 6.99392 12.9235 7.43513C11.7806 7.95822 10.6797 8.57319 9.57411 9.17542C9.36375 9.28914 9.10968 9.49655 9.06141 9.70488C8.65344 11.4852 7.71819 12.9899 6.67184 14.4445C6.15277 15.1668 5.65464 15.8828 5.79761 16.8753C5.87775 17.432 5.85863 18.0361 5.73022 18.5837C5.335 20.284 4.88786 21.9715 4.41705 23.6536C4.25951 24.214 4.28228 24.6361 4.58097 25.1883C5.34593 26.6093 6.20559 28.0512 6.55801 29.5923C6.81026 30.6885 6.93229 31.771 7.57522 32.7262C7.68905 32.8945 7.74096 33.1038 7.87118 33.4167L8.37204 34.6376L0.67334 35.9385H46.0278L46.0287 35.9394ZM25.9896 16.9881C25.1573 17.6959 24.3331 18.4127 23.509 19.1268C23.2312 19.3679 22.9517 19.6099 22.673 19.8492C22.4499 20.042 22.2277 20.2358 22.0028 20.4241C21.7797 20.6151 21.5556 20.8062 21.3307 20.9954C21.1313 21.1637 20.9318 21.3293 20.7315 21.4976C20.3909 21.7787 20.0485 22.0598 19.7061 22.3354C19.4475 22.5428 19.187 22.7493 18.9266 22.9522C18.6661 23.156 18.4029 23.357 18.1388 23.5572C16.9049 24.4896 15.2685 24.9072 13.785 25.4821C13.2805 25.6777 13.0492 25.9015 12.8206 26.4201C12.3207 27.5536 11.6085 28.5925 10.9966 29.6778C10.5449 30.4792 10.116 31.2962 9.67702 32.1085C9.39927 31.7119 9.00677 31.1952 8.67256 30.6457C8.58423 30.5011 8.61155 30.2091 8.7017 30.0471C9.68976 28.2695 10.7297 26.5229 11.6859 24.728C11.9992 24.1403 12.3097 23.76 12.9955 23.5481C14.0901 23.2097 15.1555 22.7357 16.1746 22.2044C16.5989 21.9815 17.026 21.7596 17.4504 21.5367C18.1498 21.1673 18.8501 20.798 19.5476 20.4259C21.7123 19.2742 23.8623 18.1171 25.9915 16.9781V16.9881H25.9896ZM34.5553 11.7563C34.6545 11.5298 35.0571 11.4333 35.3202 11.276C35.4004 11.3578 35.4823 11.4415 35.5616 11.5234C34.7401 13.1773 33.9187 14.8321 33.0964 16.4859C32.968 16.4204 32.8405 16.3558 32.7121 16.2931C33.3195 14.7775 33.9033 13.2537 34.5553 11.7563ZM32.357 21.574C32.3132 22.5756 32.3105 23.8392 32.1675 25.0855C32.1293 25.4257 31.7195 25.7905 31.3917 26.0152C30.6413 26.5229 29.7333 26.8385 29.0868 27.4426C28.4921 27.9993 28.1561 28.8299 27.7417 29.4849C27.7773 28.1413 28.2736 26.8404 29.1141 25.6959C30.1941 24.2304 31.3625 22.8303 32.356 21.5731L32.357 21.574ZM6.4032 24.4523C6.4032 23.9656 6.34674 23.6836 6.4114 23.4344C6.95961 21.3102 7.56884 19.2105 7.5397 16.969C7.52968 16.2767 7.98957 15.5498 8.3256 14.8866C8.66618 14.2125 9.2399 13.6394 9.50399 12.9453C10.2963 10.863 11.9792 9.73945 13.8478 8.8834C15.0016 8.35668 15.8212 7.58796 16.3357 6.4963C16.8257 5.45922 17.597 4.77875 18.6133 4.32571C20.2589 3.59066 21.9017 2.85014 23.5491 2.12328C23.7631 2.02867 24.0026 1.96408 24.2339 1.95134C24.7193 1.9286 25.0034 2.19697 24.6965 2.62089C23.5992 4.14468 22.8624 5.8877 21.0803 6.95116C19.2544 8.04282 17.6954 9.58116 16.0261 10.9312C15.8704 11.0576 15.7575 11.2359 15.6664 11.4606C18.1079 10.9166 20.2743 9.77493 22.429 8.56136C24.5954 7.33961 26.8274 6.23976 29.0312 5.08532C29.0759 5.13536 29.1196 5.1863 29.1633 5.23816C28.9739 5.40646 28.7935 5.58476 28.5959 5.74214C26.5661 7.36235 24.5062 8.94799 22.5209 10.6182C22.0774 10.9921 21.8024 11.6326 21.5939 12.203C21.0284 13.744 20.5475 15.316 20.0157 16.8698C19.9292 17.12 19.7471 17.3338 19.5194 17.533C19.9456 15.629 20.1978 13.7395 19.9101 11.6808C19.1961 12.1802 18.6033 12.6405 17.9667 13.0308C16.1363 14.1561 14.3123 15.2896 12.4381 16.3367C11.8325 16.6742 11.5448 17.0354 11.3681 17.7141C10.6787 20.3422 9.88829 22.9431 9.12971 25.5522C9.11059 25.6177 9.04138 25.6677 8.99493 25.7241C8.94211 25.7196 8.89203 25.7159 8.83921 25.7114C9.06414 23.4089 9.28725 21.1055 9.50945 18.803C8.49407 20.6361 7.91216 22.6529 6.39956 24.4523H6.4032Z" fill="white"/>
</svg>
