<svg width="25" height="17" viewBox="0 0 25 17" fill="none" xmlns="http://www.w3.org/2000/svg">
<path d="M24.4251 2.72067C24.9556 4.57742 24.9556 8.55618 24.9556 8.55618C24.9556 8.55618 24.9556 12.4907 24.4251 14.3917C24.1599 15.4527 23.3199 16.2485 22.3031 16.5137C20.4022 17 12.8867 17 12.8867 17C12.8867 17 5.32707 17 3.42611 16.5137C2.40931 16.2485 1.56935 15.4527 1.3041 14.3917C0.773601 12.4907 0.773601 8.55618 0.773601 8.55618C0.773601 8.55618 0.773601 4.57742 1.3041 2.72067C1.56935 1.65966 2.40931 0.819704 3.42611 0.554453C5.32707 0.0239515 12.8867 0.0239515 12.8867 0.0239515C12.8867 0.0239515 20.4022 0.0239515 22.3031 0.554453C23.3199 0.819704 24.1599 1.65966 24.4251 2.72067ZM10.411 12.1371L16.6886 8.55618L10.411 4.9753V12.1371Z" fill="white"/>
</svg>
