<svg width="60" height="60" viewBox="0 0 60 60" fill="none" xmlns="http://www.w3.org/2000/svg">
<path d="M48.7493 31.4304L29.9993 50.0004L11.2493 31.4304C10.0126 30.227 9.03839 28.7805 8.38816 27.182C7.73792 25.5836 7.42569 23.8678 7.47113 22.1428C7.51657 20.4177 7.9187 18.7208 8.65218 17.1588C9.38567 15.5968 10.4346 14.2036 11.733 13.0669C13.0314 11.9302 14.5511 11.0747 16.1963 10.5541C17.8416 10.0336 19.5768 9.8594 21.2927 10.0424C23.0086 10.2255 24.668 10.7618 26.1665 11.6177C27.6649 12.4736 28.9699 13.6304 29.9993 15.0154C31.0331 13.6405 32.3396 12.4937 33.837 11.647C35.3344 10.8002 36.9905 10.2716 38.7016 10.0942C40.4127 9.91692 42.142 10.0947 43.7812 10.6164C45.4204 11.1382 46.9344 11.9926 48.2282 13.1264C49.522 14.2601 50.5679 15.6487 51.3003 17.2052C52.0328 18.7617 52.4361 20.4527 52.4851 22.1722C52.534 23.8918 52.2274 25.6029 51.5846 27.1986C50.9418 28.7942 49.9766 30.24 48.7493 31.4454M29.9994 15L21.7669 23.2325C21.2982 23.7013 21.0349 24.3371 21.0349 25C21.0349 25.6629 21.2982 26.2987 21.7669 26.7675L23.1244 28.125C24.8494 29.85 27.6494 29.85 29.3744 28.125L31.8744 25.625C33.3662 24.1332 35.3896 23.2951 37.4994 23.2951C39.6092 23.2951 41.6325 24.1332 43.1244 25.625L48.7494 31.25M31.2498 38.75L36.2498 43.75M37.4998 32.5L42.4998 37.5" stroke="#2E2320" stroke-width="4" stroke-linecap="round" stroke-linejoin="round"/>
</svg>
