<svg width="42" height="48" viewBox="0 0 42 48" fill="none" xmlns="http://www.w3.org/2000/svg">
<path d="M14.1828 20.752C14.1828 22.6085 14.9203 24.389 16.233 25.7018C17.5458 27.0145 19.3263 27.752 21.1828 27.752C23.0393 27.752 24.8198 27.0145 26.1325 25.7018C27.4453 24.389 28.1828 22.6085 28.1828 20.752C28.1828 18.8955 27.4453 17.115 26.1325 15.8023C24.8198 14.4895 23.0393 13.752 21.1828 13.752C19.3263 13.752 17.5458 14.4895 16.233 15.8023C14.9203 17.115 14.1828 18.8955 14.1828 20.752Z" stroke="#EB3300" stroke-width="4" stroke-linecap="round" stroke-linejoin="round"/>
<path d="M34.3825 33.9516L24.4821 43.8519C23.6071 44.7261 22.4208 45.2171 21.184 45.2171C19.9471 45.2171 18.7608 44.7261 17.8858 43.8519L7.98312 33.9516C5.37264 31.341 3.59491 28.0149 2.87473 24.3939C2.15455 20.773 2.52427 17.0198 3.93713 13.609C5.34999 10.1981 7.74255 7.28285 10.8122 5.23177C13.8819 3.18069 17.4909 2.08594 21.1828 2.08594C24.8747 2.08594 28.4836 3.18069 31.5533 5.23177C34.623 7.28285 37.0156 10.1981 38.4284 13.609C39.8413 17.0198 40.211 20.773 39.4908 24.3939C38.7707 28.0149 36.9929 31.341 34.3825 33.9516Z" stroke="#EB3300" stroke-width="4" stroke-linecap="round" stroke-linejoin="round"/>
</svg>
