<svg width="57" height="57" viewBox="0 0 57 57" fill="none" xmlns="http://www.w3.org/2000/svg">
<path d="M23.604 32.982L49.2707 7.31531M23.604 32.982L31.7697 49.3153C31.8721 49.5387 32.0364 49.728 32.2432 49.8607C32.4501 49.9935 32.6906 50.064 32.9364 50.064C33.1821 50.064 33.4227 49.9935 33.6295 49.8607C33.8363 49.728 34.0007 49.5387 34.103 49.3153L49.2707 7.31531M23.604 32.982L7.2697 24.8153C7.0463 24.7129 6.85699 24.5486 6.72427 24.3418C6.59155 24.1349 6.521 23.8944 6.521 23.6486C6.521 23.4029 6.59155 23.1623 6.72427 22.9555C6.85699 22.7487 7.0463 22.5843 7.2697 22.482L49.2707 7.31531" stroke="#EB3300" stroke-width="4" stroke-linecap="round" stroke-linejoin="round"/>
</svg>
