<svg width="45" height="44" viewBox="0 0 45 44" fill="none" xmlns="http://www.w3.org/2000/svg">
<path d="M2.27051 12C2.27051 9.34783 3.32407 6.80429 5.19944 4.92893C7.0748 3.05357 9.61834 2 12.2705 2H32.2705C34.9227 2 37.4662 3.05357 39.3416 4.92893C41.2169 6.80429 42.2705 9.34783 42.2705 12V32C42.2705 34.6522 41.2169 37.1957 39.3416 39.0711C37.4662 40.9464 34.9227 42 32.2705 42H12.2705C9.61834 42 7.0748 40.9464 5.19944 39.0711C3.32407 37.1957 2.27051 34.6522 2.27051 32V12Z" stroke="#EB3300" stroke-width="4" stroke-linecap="round" stroke-linejoin="round"/>
<path d="M18.9372 17V27L27.2705 22L18.9372 17Z" stroke="#EB3300" stroke-width="4" stroke-linecap="round" stroke-linejoin="round"/>
</svg>
